<?xml version="1.0" encoding="utf-8"?>
<!-- Generator: Adobe Illustrator 26.1.0, SVG Export Plug-In . SVG Version: 6.00 Build 0)  -->
<svg version="1.1" id="a" xmlns="http://www.w3.org/2000/svg" xmlns:xlink="http://www.w3.org/1999/xlink" x="0px" y="0px"
	 viewBox="0 0 26 26" style="enable-background:new 0 0 26 26;" xml:space="preserve">
<style type="text/css">
	.st0{fill:#832729;}
	.st1{fill:none;stroke:#EFE3E3;}
</style>
<g>
	<path class="st0" d="M13.1,20.5L13,20.6l-0.1-0.1C7.1,15.4,3.3,12,3.3,8.6c0-2.4,1.8-4.1,4.3-4.1c1.9,0,3.7,1.2,4.4,2.8h2.3
		c0.6-1.6,2.5-2.8,4.3-2.8c2.4,0,4.3,1.8,4.3,4.1C22.8,12.1,18.9,15.4,13.1,20.5z M18.5,2.2c-2.1,0-4.2,1-5.5,2.5
		c-1.3-1.5-3.4-2.5-5.5-2.5C3.7,2.2,0.8,5,0.8,8.7c0,4.5,4.1,8.1,10.4,13.6l1.8,1.5l1.8-1.6c6.3-5.5,10.4-9.2,10.4-13.6
		C25.2,5,22.2,2.2,18.5,2.2z"/>
	<path class="st1" d="M13.1,20.5L13,20.6l-0.1-0.1C7.1,15.4,3.3,12,3.3,8.6c0-2.4,1.8-4.1,4.3-4.1c1.9,0,3.7,1.2,4.4,2.8h2.3
		c0.6-1.6,2.5-2.8,4.3-2.8c2.4,0,4.3,1.8,4.3,4.1C22.8,12.1,18.9,15.4,13.1,20.5z"/>
	<path class="st1" d="M18.5,2.2c-2.1,0-4.2,1-5.5,2.5c-1.3-1.5-3.4-2.5-5.5-2.5C3.7,2.2,0.8,5,0.8,8.7c0,4.5,4.1,8.1,10.4,13.6
		l1.8,1.5l1.8-1.6c6.3-5.5,10.4-9.2,10.4-13.6C25.2,5,22.2,2.2,18.5,2.2z"/>
</g>
</svg>
